<?xml version="1.0" standalone="no"?>
<!DOCTYPE svg PUBLIC "-//W3C//DTD SVG 20010904//EN"
 "http://www.w3.org/TR/2001/REC-SVG-20010904/DTD/svg10.dtd">
<svg version="1.0" xmlns="http://www.w3.org/2000/svg"
 width="970.000000pt" height="970.000000pt" viewBox="0 0 970.000000 970.000000"
 preserveAspectRatio="xMidYMid meet">
<metadata>
Created by potrace 1.14, written by Peter Selinger 2001-2017
</metadata>
<g transform="translate(0.000000,970.000000) scale(0.100000,-0.100000)"
fill="#000000" stroke="none">
<path d="M4899 9695 c-2 -2 -44 -6 -94 -9 -49 -4 -106 -8 -125 -11 -19 -2 -52
-5 -72 -6 -21 -2 -38 -7 -38 -12 0 -5 -7 -7 -15 -3 -9 3 -50 -1 -93 -9 -42 -8
-88 -16 -102 -19 -14 -2 -68 -14 -120 -26 -52 -12 -104 -23 -115 -25 -11 -3
-78 -23 -150 -45 -71 -22 -134 -42 -140 -43 -12 -3 -73 -26 -100 -38 -11 -5
-45 -18 -75 -29 -49 -19 -92 -38 -200 -88 -19 -9 -38 -21 -42 -26 -4 -6 -8 -7
-8 -3 0 5 -15 0 -32 -11 -18 -11 -58 -33 -89 -50 -68 -36 -85 -47 -213 -131
-54 -37 -106 -70 -115 -76 -8 -5 -23 -17 -31 -25 -8 -8 -44 -37 -80 -65 -69
-53 -260 -239 -325 -317 -74 -87 -80 -94 -100 -122 -11 -16 -26 -34 -32 -41
-7 -8 -13 -16 -13 -20 0 -6 -41 -66 -51 -75 -3 -3 -19 -30 -35 -60 -16 -30
-32 -57 -35 -60 -11 -8 -119 -239 -119 -253 0 -8 -3 -17 -7 -21 -11 -10 -67
-175 -76 -221 -2 -11 -7 -27 -10 -35 -4 -8 -9 -26 -11 -40 -20 -107 -26 -141
-32 -180 -4 -25 -8 -58 -10 -75 -1 -16 -3 -30 -4 -30 -8 0 -12 -332 -5 -440 6
-97 15 -218 19 -245 2 -14 7 -47 10 -73 4 -26 11 -71 17 -100 6 -29 12 -62 14
-74 2 -11 6 -32 11 -45 4 -12 8 -32 9 -43 3 -19 16 -66 56 -189 l19 -59 -30
-64 c-17 -35 -30 -66 -30 -69 0 -2 -16 -38 -35 -80 -19 -41 -35 -77 -35 -79 0
-2 -15 -36 -34 -77 -18 -40 -48 -107 -66 -148 -31 -72 -66 -150 -95 -215 -54
-117 -127 -282 -129 -290 -1 -5 -16 -37 -31 -70 -16 -33 -30 -62 -30 -65 -3
-9 -22 -53 -48 -110 -111 -241 -144 -319 -139 -324 3 -3 0 -6 -6 -6 -7 0 -12
-4 -12 -10 0 -5 -11 -33 -24 -62 -13 -29 -76 -168 -139 -308 -63 -140 -128
-284 -145 -320 -16 -36 -39 -87 -52 -115 -71 -160 -85 -191 -95 -197 -5 -4 -6
-8 -1 -8 5 0 3 -6 -3 -13 -6 -8 -9 -16 -6 -19 3 -3 -1 -11 -10 -18 -8 -7 -15
-18 -15 -25 0 -7 -24 -64 -53 -126 -49 -104 -68 -146 -72 -159 -1 -3 -15 -34
-32 -70 -17 -36 -43 -92 -58 -125 -58 -129 -124 -271 -139 -300 -9 -16 -16
-34 -16 -38 0 -4 -14 -35 -30 -69 -17 -33 -30 -66 -30 -74 0 -8 -4 -14 -9 -14
-5 0 -11 -9 -14 -19 -4 -17 0 -19 24 -16 16 2 32 6 37 8 42 27 571 28 738 3
l40 -6 13 52 c24 95 92 324 117 390 8 21 11 38 8 38 -4 0 1 11 10 25 9 14 14
25 12 25 -3 0 25 84 61 187 97 281 109 313 133 373 12 30 23 60 24 65 3 17
163 422 219 555 6 14 10 28 9 31 -1 4 23 7 54 8 30 0 59 3 64 6 6 3 10 2 10
-4 0 -7 9 -8 23 -3 12 5 33 7 47 5 14 -1 63 -5 110 -8 47 -2 96 -7 110 -10 14
-3 48 -8 75 -11 28 -4 57 -10 66 -15 9 -4 19 -6 21 -3 3 2 36 -3 74 -12 38 -9
76 -17 84 -19 8 -2 42 -11 75 -20 33 -9 65 -18 70 -19 6 -1 15 -4 20 -7 6 -4
35 -14 65 -24 307 -98 629 -287 834 -491 92 -91 208 -253 222 -309 4 -17 10
-34 14 -40 4 -5 10 -21 13 -35 2 -14 28 -92 57 -175 28 -82 53 -154 54 -160 9
-38 31 -102 39 -113 5 -7 7 -15 4 -19 -4 -3 -3 -11 2 -17 6 -7 12 -23 15 -36
2 -14 11 -44 20 -68 8 -23 15 -44 16 -47 0 -3 6 -26 12 -51 l13 -46 46 6 c105
14 264 19 599 19 382 0 605 -7 685 -22 27 -5 51 -9 51 -8 1 1 -22 50 -50 109
-55 112 -72 149 -156 338 -28 63 -65 143 -81 177 -16 34 -29 64 -29 67 0 7
-24 62 -71 163 -16 34 -29 65 -29 69 0 4 -8 26 -19 48 -37 81 -51 114 -51 119
0 3 -13 34 -29 69 -39 85 -81 188 -76 188 10 0 146 -74 151 -82 3 -4 10 -6 15
-3 5 4 9 1 9 -4 0 -6 5 -11 11 -11 14 0 209 -122 286 -179 34 -25 71 -53 83
-61 13 -8 28 -20 34 -25 6 -6 27 -23 46 -39 19 -15 66 -56 103 -89 76 -67 73
-53 40 -222 -2 -11 -6 -36 -9 -55 -3 -19 -17 -86 -30 -148 -28 -124 -27 -130
28 -158 46 -24 250 -104 265 -104 7 0 21 -4 31 -9 19 -11 107 -39 142 -46 13
-3 29 -10 36 -17 41 -44 51 -340 20 -573 -3 -17 -7 -50 -10 -75 -3 -25 -13
-72 -21 -105 -9 -33 -18 -71 -21 -85 -15 -74 -83 -242 -123 -305 -14 -22 -30
-49 -37 -60 -28 -52 -142 -174 -216 -231 -143 -111 -371 -198 -582 -221 -74
-9 -407 -8 -456 1 -19 3 -48 8 -65 11 -16 2 -45 9 -62 14 -18 5 -33 8 -33 6 0
-3 -12 0 -27 6 -16 6 -35 12 -43 14 -31 7 -176 56 -205 70 -16 7 -54 23 -83
34 -57 23 -217 101 -310 153 -114 62 -402 246 -422 268 -3 3 -21 17 -40 30
-19 13 -37 27 -40 30 -3 4 -12 11 -21 16 -17 10 -50 36 -198 158 -123 102
-146 123 -315 291 -162 162 -184 186 -290 315 -102 125 -94 114 -155 203 l-54
77 -111 -5 c-61 -3 -160 -7 -219 -9 -60 -2 -110 -6 -112 -7 -2 -2 -6 -35 -10
-74 -3 -38 -8 -81 -10 -95 -10 -70 -15 -110 -21 -155 -3 -27 -9 -79 -14 -114
-5 -36 -7 -68 -4 -73 3 -4 2 -8 -3 -8 -4 0 -9 -18 -10 -40 -1 -22 -5 -52 -8
-67 -3 -15 -8 -53 -11 -83 -7 -58 -11 -85 -14 -85 -1 0 -3 -9 -4 -20 -16 -130
-19 -145 -31 -205 -3 -14 -8 -45 -11 -70 -3 -25 -8 -56 -10 -70 -3 -14 -7 -38
-10 -55 -2 -16 -6 -37 -9 -44 -3 -8 -8 -35 -11 -60 -3 -26 -7 -54 -10 -63 -5
-17 -10 -43 -19 -91 -5 -23 -29 -140 -40 -187 -2 -8 -11 -45 -20 -83 l-17 -67
23 -36 c21 -31 81 -70 102 -66 4 1 7 -2 7 -8 0 -5 6 -10 14 -10 7 0 38 -11 67
-24 48 -21 84 -36 99 -41 3 -1 19 -7 35 -14 52 -22 370 -134 410 -145 6 -2 17
-5 25 -8 8 -3 58 -18 110 -33 52 -15 106 -31 120 -36 21 -7 144 -40 200 -54
222 -55 295 -72 343 -80 15 -3 60 -12 100 -21 80 -17 264 -49 340 -60 15 -2
39 -6 55 -9 15 -3 45 -8 67 -10 22 -2 54 -6 70 -8 107 -17 265 -34 390 -42 22
-2 87 -7 145 -11 184 -14 900 -9 900 6 0 3 24 6 54 8 29 1 64 5 77 7 13 3 47
8 74 11 75 8 250 39 287 50 10 3 30 7 45 10 16 3 46 10 68 16 22 5 47 12 55
13 8 2 42 11 75 20 33 9 65 17 70 18 6 2 15 5 20 9 6 3 37 13 70 22 33 9 85
27 115 39 30 12 57 22 60 23 3 0 14 4 25 9 133 53 194 79 220 93 16 9 32 17
35 17 8 2 113 55 130 65 77 46 192 110 199 110 5 0 11 3 13 8 2 4 43 34 93 67
90 60 251 184 313 240 83 75 213 207 277 280 81 92 215 269 215 284 0 5 3 11
8 13 13 5 98 149 159 268 71 140 162 366 178 445 2 11 12 54 23 95 11 41 25
100 31 130 6 30 13 69 17 85 3 17 6 39 5 50 0 15 18 30 76 60 85 44 166 95
171 107 2 4 8 8 13 8 38 0 280 221 354 324 11 15 28 37 38 49 11 12 37 54 60
92 23 39 45 73 50 76 5 3 9 9 8 12 0 4 10 28 22 54 11 27 22 50 22 53 1 3 7
19 14 35 7 17 14 37 16 45 2 8 8 27 14 43 13 33 18 54 41 177 17 93 21 336 6
400 -3 14 -11 48 -17 75 -35 158 -125 336 -245 485 -43 53 -223 231 -269 265
-22 16 -42 32 -45 35 -3 3 -21 17 -40 30 -19 13 -40 29 -47 36 -6 6 -47 33
-90 59 -43 27 -79 53 -81 57 -2 4 -8 8 -12 8 -5 0 -33 14 -62 31 -100 60 -123
72 -308 164 -220 110 -282 140 -292 137 -5 -1 -8 3 -8 8 0 5 -3 9 -7 8 -9 -2
-205 91 -213 101 -3 3 -34 21 -70 40 -35 19 -73 42 -84 53 -11 10 -23 18 -28
18 -12 0 -56 38 -134 116 -129 129 -207 309 -209 482 0 23 -2 42 -5 42 -6 0
-4 70 5 148 3 29 18 91 34 138 60 175 177 317 323 392 69 36 174 70 201 66 9
-1 17 1 17 4 0 9 100 7 165 -2 139 -20 324 -113 470 -236 49 -41 207 -202 245
-248 19 -24 40 -49 45 -55 54 -63 177 -248 220 -329 l19 -38 135 5 c74 3 136
6 137 8 2 1 6 27 9 57 3 30 8 66 10 80 2 14 7 50 10 80 9 75 14 114 20 153 2
17 7 52 10 77 3 25 15 93 26 152 11 58 19 110 18 115 -1 4 1 15 4 23 3 8 17
59 30 113 l23 97 -29 30 c-16 17 -33 30 -38 30 -5 0 -40 15 -79 34 -38 19 -70
32 -70 30 0 -3 -12 2 -27 10 -27 13 -255 93 -291 101 -9 3 -60 16 -112 30 -52
14 -106 27 -120 29 -14 2 -25 5 -25 6 0 2 -16 5 -65 14 -14 2 -52 9 -85 14
-135 24 -209 34 -268 36 l-38 1 6 71 c3 39 7 81 10 92 2 11 6 48 10 81 3 33 8
70 10 82 10 52 18 106 20 135 1 17 4 35 7 40 3 5 4 18 2 28 -1 11 0 25 4 30 3
6 7 20 8 31 1 20 10 76 19 125 2 14 7 42 10 63 9 62 16 108 22 131 2 11 6 32
8 46 2 14 4 25 5 25 1 0 3 11 5 25 2 14 13 70 24 125 12 55 24 111 26 125 3
14 16 66 30 115 14 50 27 97 29 105 2 8 -5 31 -16 51 -16 29 -39 46 -112 83
-50 25 -97 46 -103 46 -7 0 -13 5 -13 12 0 6 -3 9 -6 5 -3 -3 -23 3 -42 14
-20 10 -41 19 -45 19 -9 0 -24 6 -119 49 -26 11 -54 21 -61 21 -8 0 -17 3 -21
8 -4 4 -12 8 -17 8 -5 1 -11 3 -14 4 -3 1 -8 3 -12 5 -10 2 -43 15 -68 25 -49
21 -353 117 -380 121 -5 1 -20 5 -33 10 -12 5 -33 11 -45 13 -12 2 -49 12 -82
21 -48 13 -119 32 -132 35 -2 0 -4 0 -5 1 -2 0 -14 3 -27 5 -14 2 -61 13 -104
24 -44 11 -83 17 -88 14 -5 -3 -9 0 -9 6 0 7 -7 10 -15 7 -8 -4 -17 -2 -20 3
-3 5 -11 7 -18 4 -7 -2 -37 2 -67 10 -30 8 -58 12 -62 10 -5 -3 -14 -2 -20 3
-13 8 -16 8 -83 18 -22 3 -51 7 -65 9 -14 3 -45 7 -70 10 -25 3 -55 8 -67 10
-43 9 -159 21 -200 21 -24 0 -43 3 -43 7 0 4 -10 7 -22 7 -13 -1 -59 2 -103 5
-44 4 -109 10 -145 12 -80 6 -686 14 -691 9z m542 -809 c31 -4 81 -14 110 -22
68 -19 88 -24 119 -30 13 -3 29 -9 35 -13 5 -5 27 -14 48 -21 141 -45 458
-246 631 -399 48 -42 339 -333 366 -366 106 -128 126 -150 133 -153 4 -2 7
-10 7 -17 0 -7 4 -15 8 -17 4 -1 23 -23 42 -48 19 -25 38 -47 41 -50 3 -3 20
-27 39 -55 19 -27 36 -52 39 -55 11 -9 111 -166 111 -174 0 -4 -4 -5 -9 -1 -5
3 -12 1 -16 -5 -4 -6 -10 -8 -14 -6 -4 3 -25 0 -47 -5 -21 -5 -50 -12 -64 -15
-32 -6 -209 -61 -235 -73 -11 -5 -54 -24 -95 -42 -75 -33 -251 -132 -280 -157
-8 -7 -44 -36 -80 -65 -76 -61 -170 -153 -170 -167 0 -6 -4 -10 -10 -10 -5 0
-32 -33 -60 -72 -27 -40 -53 -77 -58 -83 -15 -19 -89 -180 -101 -220 -7 -22
-15 -47 -17 -55 -3 -8 -5 -15 -4 -15 0 0 -6 -22 -14 -50 -8 -27 -14 -57 -14
-65 -1 -8 -4 -33 -8 -55 -14 -81 -7 -366 11 -445 3 -14 7 -41 10 -60 3 -19 9
-50 14 -67 5 -18 7 -33 4 -33 -3 0 -1 -6 5 -12 6 -7 13 -31 17 -53 4 -22 3
-35 -2 -30 -4 6 -71 40 -148 77 -218 104 -260 122 -267 120 -3 -1 -12 5 -18
13 -7 8 -16 15 -21 15 -23 0 -406 190 -543 269 -49 28 -93 51 -97 51 -5 0 -9
4 -9 9 0 5 -13 14 -30 21 -16 7 -30 16 -30 21 0 5 -5 9 -11 9 -21 0 -203 144
-290 230 -178 176 -268 316 -348 543 -17 48 -32 99 -35 114 -2 15 -5 28 -6 28
-2 0 -6 21 -14 70 -4 22 -8 47 -11 55 -18 70 -26 388 -11 475 8 50 32 170 41
212 31 136 181 425 268 517 12 12 36 37 53 56 79 90 230 203 349 263 114 56
277 104 395 114 36 3 66 6 67 7 6 5 173 -2 224 -8z m-2787 -3560 c107 -117 89
-99 211 -211 54 -49 107 -98 117 -107 10 -10 20 -18 22 -18 3 0 18 -12 33 -26
15 -15 80 -66 143 -115 63 -49 122 -95 130 -103 8 -7 26 -19 40 -26 41 -21 86
-76 99 -122 7 -24 19 -56 26 -73 7 -16 23 -57 35 -90 12 -33 26 -69 30 -80 4
-11 13 -36 20 -55 7 -19 17 -45 23 -57 13 -28 3 -40 -18 -23 -71 59 -387 200
-507 226 -5 1 -10 3 -13 4 -7 3 -10 4 -75 18 -72 15 -126 24 -175 27 -22 2
-40 4 -40 5 0 6 -228 4 -232 -3 -2 -4 -12 -3 -22 3 -10 5 -21 6 -25 2 -4 -3
-24 -7 -44 -8 -68 -4 -231 -25 -292 -38 -13 -3 -42 -8 -63 -11 -37 -6 -38 -5
-31 17 3 13 17 46 30 75 13 28 24 54 24 57 0 2 14 35 32 73 17 37 31 74 31 81
0 6 4 12 8 12 4 0 10 11 13 25 4 14 18 50 31 80 14 30 36 80 50 110 14 31 25
58 25 60 0 2 11 28 24 57 62 138 87 193 85 193 0 0 10 25 24 55 14 30 35 79
48 109 l23 54 34 -39 c20 -22 76 -84 126 -138z"/>
</g>
</svg>
